<svg xmlns="http://www.w3.org/2000/svg" width="56.318" height="45.811" viewBox="0 0 56.318 45.811"><defs><style>.a{fill:#bde46c;}.b{fill:#81cbf0;}.c{fill:#e3eff5;}</style></defs><g transform="translate(-449 -1835.048)"><g transform="translate(327.128 1076.525)"><path class="a" d="M142.913,758.809c-11.621,0-21.041,6.213-21.041,13.877,0,4.762,3.637,8.962,9.178,11.462l-.706,8.282,8.425-6.137a31.623,31.623,0,0,0,4.143.271c11.621,0,21.041-6.213,21.041-13.878S154.533,758.809,142.913,758.809Z" transform="translate(0 -0.286)"/><path class="b" d="M184.972,767.8c0-6.248-7.26-11.313-16.217-11.313s-16.217,5.065-16.217,11.313,7.26,11.313,16.217,11.313c.7,0,1.388-.042,2.066-.1l6.618,3.694-1.051-4.925C181.5,775.877,184.972,772.125,184.972,767.8Z" transform="translate(-6.781 3)"/></g><path class="c" d="M692.924,571.8c15.223,0,27.562.9,27.562,2s-12.339,2-27.562,2-27.563-.9-27.563-2,12.341-2,27.563-2" transform="translate(-216.361 1305.054)"/></g></svg>