<svg xmlns="http://www.w3.org/2000/svg" width="47" height="56.438" viewBox="0 0 47 56.438"><defs><style>.a{fill:#81cbf0;}.b{fill:#fff;}.c{fill:#bbe7fc;}.d{fill:#e3eff5;}</style></defs><g transform="translate(-1105 -2285)"><circle class="a" cx="23.5" cy="23.5" r="23.5" transform="translate(1105 2285)"/><g transform="translate(0 0)"><g transform="translate(1120 2302)"><path class="b" d="M1788.956,374.089h-5.566a1.127,1.127,0,0,1-1.2-1.117,1.923,1.923,0,0,1,.135-.8,11.72,11.72,0,0,1,3.113-3.654c.93-.846,2.284-1.81,2.284-3.062a1.461,1.461,0,0,0-1.59-1.54,3.547,3.547,0,0,0-1.421.271,3.016,3.016,0,0,1-1.2.457,1.1,1.1,0,0,1-1.15-1.032c0-1.235,2.419-1.76,3.79-1.76,2.47,0,3.908,1.523,3.908,3.434a4.339,4.339,0,0,1-1.337,3.2,40.575,40.575,0,0,0-3.536,3.485h3.773a1.1,1.1,0,0,1,1.167,1.049A1.109,1.109,0,0,1,1788.956,374.089Z" transform="translate(-1782.189 -361.857)"/><path class="b" d="M1804.287,373.17a1.172,1.172,0,0,1-2.335,0v-1.387h-3.722a1.164,1.164,0,0,1-1.2-1.15,2.156,2.156,0,0,1,.17-.592l3.249-7.495a1.139,1.139,0,0,1,1.048-.66,1.194,1.194,0,0,1,1.168,1.1.821.821,0,0,1-.068.372c-.981,2.267-1.776,4.044-2.758,6.311h2.115v-2.589a1.1,1.1,0,0,1,1.167-1.066,1.118,1.118,0,0,1,1.167,1.066v2.589h.22a1.06,1.06,0,1,1,0,2.115h-.22Z" transform="translate(-1788.062 -361.868)"/></g><g transform="translate(1109 2289)"><path class="c" d="M1771.13,372.66a1.274,1.274,0,0,0-1.274-1.274h-3.687a1.274,1.274,0,1,0,0,2.547h3.687A1.274,1.274,0,0,0,1771.13,372.66Z" transform="translate(-1764.896 -353.105)"/><path class="c" d="M1770.855,384.62l-1.537.888a1.273,1.273,0,1,0,1.274,2.206l1.537-.887a1.274,1.274,0,0,0-1.274-2.206Z" transform="translate(-1766.27 -357.849)"/><path class="c" d="M1781.985,394.229a1.272,1.272,0,0,0-1.739.466l-.889,1.537a1.274,1.274,0,1,0,2.205,1.274l.889-1.537A1.274,1.274,0,0,0,1781.985,394.229Z" transform="translate(-1770.085 -361.338)"/><path class="c" d="M1794.875,394.637a1.274,1.274,0,0,0-1.274,1.274V399.6a1.274,1.274,0,0,0,2.548,0v-3.686A1.274,1.274,0,0,0,1794.875,394.637Z" transform="translate(-1775.319 -361.548)"/><path class="c" d="M1809.042,394.863a1.274,1.274,0,1,0-2.206,1.273l.887,1.538a1.274,1.274,0,1,0,2.207-1.273Z" transform="translate(-1780.063 -361.399)"/><path class="c" d="M1819.722,385.8l-1.538-.888a1.274,1.274,0,0,0-1.274,2.206l1.538.888a1.274,1.274,0,1,0,1.274-2.206Z" transform="translate(-1783.552 -357.954)"/><path class="c" d="M1821.813,371.722h-3.686a1.274,1.274,0,0,0,0,2.547h3.686a1.274,1.274,0,0,0,0-2.547Z" transform="translate(-1783.763 -353.227)"/><path class="c" d="M1817.716,360.7a1.261,1.261,0,0,0,.635-.171l1.538-.888a1.273,1.273,0,1,0-1.274-2.205l-1.538.888a1.274,1.274,0,0,0,.638,2.377Z" transform="translate(-1783.613 -347.977)"/><path class="c" d="M1809.754,346.8a1.273,1.273,0,0,0-1.741.467l-.887,1.537a1.274,1.274,0,1,0,2.206,1.273l.888-1.537A1.274,1.274,0,0,0,1809.754,346.8Z" transform="translate(-1780.169 -344.117)"/><path class="c" d="M1795.211,342.682a1.273,1.273,0,0,0-1.274,1.274v3.686a1.274,1.274,0,1,0,2.547,0v-3.686A1.274,1.274,0,0,0,1795.211,342.682Z" transform="translate(-1775.442 -342.682)"/><path class="c" d="M1781.855,347.1a1.274,1.274,0,1,0-2.207,1.273l.888,1.538a1.274,1.274,0,1,0,2.206-1.273Z" transform="translate(-1770.191 -344.056)"/><path class="c" d="M1772.3,358.03l-1.538-.888a1.274,1.274,0,1,0-1.274,2.206l1.538.888a1.274,1.274,0,0,0,1.274-2.206Z" transform="translate(-1766.331 -347.87)"/></g></g><path class="d" d="M684.495,571.8c10.567,0,19.133.9,19.133,2s-8.566,2-19.133,2-19.134-.9-19.134-2,8.567-2,19.134-2" transform="translate(443.639 1765.634)"/></g></svg>