<svg xmlns="http://www.w3.org/2000/svg" width="51.042" height="54.486" viewBox="0 0 51.042 54.486"><defs><style>.a{fill:#81cbf0;}.b{fill:#bde46c;}.c{fill:#e3eff5;}</style></defs><g transform="translate(-946.414 -1900.183)"><path class="a" d="M692.117,539.425l-2.919,2.538a1.422,1.422,0,0,0-.213,1.908l1.152,1.576a11.406,11.406,0,0,0-1.443,4.174l-1.851.553a1.4,1.4,0,0,0-.984,1.626l.753,3.8a1.4,1.4,0,0,0,1.53,1.128l1.921-.194a11.128,11.128,0,0,0,2.926,3.309l-.464,1.9a1.423,1.423,0,0,0,.924,1.683l3.666,1.233a1.428,1.428,0,0,0,1.749-.751l.769-1.769a10.711,10.711,0,0,0,2.226-.223,13.577,13.577,0,0,0,2.144-.643l1.385,1.343a1.4,1.4,0,0,0,1.9.027l2.919-2.537a1.425,1.425,0,0,0,.213-1.909l-1.153-1.575a11.4,11.4,0,0,0,1.445-4.174l1.82-.548a1.476,1.476,0,0,0,1.008-1.661l-.747-3.771a1.4,1.4,0,0,0-1.53-1.128l-1.921.194a11.112,11.112,0,0,0-2.926-3.309l.465-1.9a1.425,1.425,0,0,0-.925-1.684l-3.666-1.233a1.426,1.426,0,0,0-1.748.751l-.8,1.775a10.554,10.554,0,0,0-2.2.218,12.781,12.781,0,0,0-2.114.636l-1.415-1.337a1.427,1.427,0,0,0-1.9-.027m10.871,10.941a3.351,3.351,0,1,1-3.938-2.636,3.356,3.356,0,0,1,3.938,2.636" transform="translate(283.886 1378.865)"/><path class="b" d="M692.579,548.241l-1.058-1.3a14.474,14.474,0,0,0,1.7-3.106l1.663.171a1.68,1.68,0,0,0,1.834-1.492l.441-4.292a1.681,1.681,0,0,0-1.493-1.834L694,536.215a13.77,13.77,0,0,0-1.034-3.386l1.272-1.036a1.636,1.636,0,0,0,.266-2.331l-2.7-3.313a1.669,1.669,0,0,0-2.361-.242l-1.3,1.059a14.463,14.463,0,0,0-3.106-1.7l.171-1.663a1.68,1.68,0,0,0-1.492-1.834l-4.293-.44a1.68,1.68,0,0,0-1.834,1.492l-.171,1.663a13.774,13.774,0,0,0-3.387,1.035L673,524.245a1.615,1.615,0,0,0-2.332-.267l-3.343,2.721a1.662,1.662,0,0,0-.212,2.337l1.059,1.3a14.462,14.462,0,0,0-1.7,3.107l-1.663-.171a1.68,1.68,0,0,0-1.834,1.492l-.442,4.292a1.682,1.682,0,0,0,1.494,1.834l1.663.171a13.79,13.79,0,0,0,1.034,3.387l-1.3,1.059a1.694,1.694,0,0,0-.243,2.361l2.721,3.342a1.692,1.692,0,0,0,2.36.243l1.3-1.059a14.447,14.447,0,0,0,3.105,1.7l-.171,1.663a1.68,1.68,0,0,0,1.492,1.834l4.293.441a1.68,1.68,0,0,0,1.834-1.492l.171-1.664a13.748,13.748,0,0,0,3.387-1.035l1.059,1.3a1.693,1.693,0,0,0,2.361.242l3.312-2.7a1.88,1.88,0,0,0,.17-2.45m-17.4-5.8a6.019,6.019,0,1,1,8.468.87,6.037,6.037,0,0,1-8.468-.87" transform="translate(283.886 1378.865)"/><path class="c" d="M688.9,571.8c13,0,23.536.9,23.536,2s-10.537,2-23.536,2-23.537-.9-23.537-2,10.538-2,23.537-2" transform="translate(283.886 1378.865)"/></g></svg>