<svg xmlns="http://www.w3.org/2000/svg" width="43.442" height="62.26" viewBox="0 0 43.442 62.26"><defs><style>.a{fill:#81cbf0;}.b{fill:#bde46c;}.c{fill:#e3eff5;}</style></defs><g transform="translate(-1137.11 -2061.111)"><g transform="translate(1137.11 2088.406)"><g transform="translate(0 0)"><path class="a" d="M1662.925,488.846c-2.128.887-2.584,4.361-.524,5.5,1.634.156,3.673,1.77,2.643,3.574-1.122,1.856-4.118,1.7-4.725,4.032-.45,1.938,1.225,3.45,2.016,5.152,1.675,3.045,3.309,6.113,5.154,9.061,1.218,1.309,3.061.582,4.356-.146,1.2-.521,2.462-1.381,2.549-2.81.034-2.011-2.415-1.862-3.425-2.828-1.673-1.514-.848-4.429,1.021-5.324,1.752-.984,4.544-.1,4.928,1.985.014,1.524-1.026,3.641.8,4.456,1.89.625,3.574-.781,5.023-1.747a3.21,3.21,0,0,0-.174-4.654c-.758-1.108-1.367-3.064-.085-4.091,1.513-1,3.527.779,4.994-.5a3.547,3.547,0,0,0-.27-5.672c-1.291-.962-3.593-1.049-4.445.5-.436,1.471-1.206,3.742-3.181,3.011-2.27-.871-1.995-4.091-4.377-4.9-2.359-.668-3.85,2.315-6.134,1.911-1.654-.3-1.689-2.271-1.368-3.523.669-2.061-1.594-3.856-3.546-3.527a4.441,4.441,0,0,0-1.23.537Z" transform="translate(-1660.243 -488.269)"/></g></g><path class="b" d="M1763.228,497.091a1.551,1.551,0,0,1-2.975-.169l-2.125-5.052a1.275,1.275,0,0,0-1.737-.668l-5.2,2.189c-1.736.73-2.724-.537-2.25-1.894.781-2.235-1.055-4.409-3.761-3.4-2.614,1.227-2.346,4.056-.2,5.061,1.3.61,1.519,2.206-.217,2.937l-5.127,2.157a1.324,1.324,0,0,0-.788,1.732l2.169,5.155c.127.3.48.754.833.764a1.051,1.051,0,0,0,.869-.7,3.344,3.344,0,0,1,6.221.166l.011.026.006.016a3.359,3.359,0,0,1-4.28,4.55,1.011,1.011,0,0,0-1.073.122,1.185,1.185,0,0,0-.044,1.1l2.183,5.188a1.4,1.4,0,0,0,1.828.738l5.127-2.157c1.736-.73,2.7.485,2.227,1.842-.78,2.235,1.044,4.38,3.75,3.37,2.614-1.227,2.361-4.019.218-5.023-1.3-.61-1.5-2.164.236-2.894l5.2-2.189a1.357,1.357,0,0,0,.7-1.8l-2.125-5.051c-.714-1.7.576-2.684,1.947-2.239a2.807,2.807,0,1,0-1.618-3.879Z" transform="translate(-588.026 1573.267)"/><path class="c" d="M684.495,571.8c10.567,0,19.133.9,19.133,2s-8.566,2-19.133,2-19.134-.9-19.134-2,8.567-2,19.134-2" transform="translate(474.576 1547.566)"/></g></svg>