<svg xmlns="http://www.w3.org/2000/svg" width="54" height="56.643" viewBox="0 0 54 56.643"><defs><style>.a{fill:#e3eff5;}.b{fill:#81cbf0;}.c{fill:#bde46c;}.d{fill:#fff;}</style></defs><g transform="translate(-437 -1989.357)"><path class="a" d="M691.893,571.8c14.653,0,26.531.9,26.531,2s-11.878,2-26.531,2-26.532-.9-26.532-2,11.879-2,26.532-2" transform="translate(-228.361 1470.196)"/><g transform="translate(45 4)"><path class="b" d="M2,0H47a2,2,0,0,1,2,2V4a0,0,0,0,1,0,0H0A0,0,0,0,1,0,4V2A2,2,0,0,1,2,0Z" transform="translate(392 1985.357)"/><path class="a" d="M0,0H49a0,0,0,0,1,0,0V30a2,2,0,0,1-2,2H2a2,2,0,0,1-2-2V0A0,0,0,0,1,0,0Z" transform="translate(392 1989.357)"/><rect class="b" width="41" height="15" transform="translate(396 1992.357)"/><rect class="b" width="12" height="8" transform="translate(396 2009.357)"/><rect class="b" width="13" height="8" transform="translate(410 2009.357)"/><rect class="b" width="12" height="8" transform="translate(425 2009.357)"/><g transform="translate(-4 -1)"><circle class="c" cx="14.5" cy="14.5" r="14.5" transform="translate(421 2003)"/><g transform="translate(-163.314 1419.013)"><g transform="translate(591.267 598.253)"><path class="d" d="M606.359,601.053a1.2,1.2,0,0,0-1.181-1.106A1.188,1.188,0,0,0,604,601.068a5.231,5.231,0,0,1-5.189,5.276,5.153,5.153,0,0,1-3.913-1.8h.645a1.185,1.185,0,0,0,.01-2.371H592.45a1.2,1.2,0,0,0-1.183,1.189v3.131a1.2,1.2,0,0,0,1.179,1.194,1.222,1.222,0,0,0,1.179-1.061,7.526,7.526,0,0,0,12.737-5.526v-.023Z" transform="translate(-591.267 -599.947)"/></g><g transform="translate(591.267 589.947)"><path class="d" d="M591.268,597.615a1.2,1.2,0,0,0,1.181,1.106,1.188,1.188,0,0,0,1.176-1.12,5.231,5.231,0,0,1,5.189-5.276,5.151,5.151,0,0,1,3.912,1.8h-.645a1.185,1.185,0,0,0-.01,2.371h3.107a1.2,1.2,0,0,0,1.183-1.189v-3.13a1.206,1.206,0,0,0-1.18-1.2A1.222,1.222,0,0,0,604,592.043a7.526,7.526,0,0,0-12.737,5.526v.046Z" transform="translate(-591.267 -589.947)"/></g></g></g></g></g></svg>