<svg xmlns="http://www.w3.org/2000/svg" width="49.063" height="45.858" viewBox="0 0 49.063 45.858"><defs><style>.a{fill:#81cbf0;}.b{fill:#e3eff5;}</style></defs><g transform="translate(-323.937 -1828)"><path class="a" d="M2,0H47a2,2,0,0,1,2,2V4a0,0,0,0,1,0,0H0A0,0,0,0,1,0,4V2A2,2,0,0,1,2,0Z" transform="translate(324 1828)"/><path class="b" d="M0,0H49a0,0,0,0,1,0,0V30a2,2,0,0,1-2,2H2a2,2,0,0,1-2-2V0A0,0,0,0,1,0,0Z" transform="translate(324 1832)"/><rect class="a" width="22" height="15" transform="translate(328 1835)"/><rect class="a" width="12" height="8" transform="translate(328 1852)"/><rect class="a" width="13" height="8" transform="translate(342 1852)"/><rect class="a" width="12" height="8" transform="translate(357 1852)"/><g transform="translate(-30 -5)"><rect class="a" width="16" height="2" transform="translate(383 1840)"/><rect class="a" width="6" height="2" transform="translate(383 1844)"/><rect class="a" width="10" height="2" transform="translate(383 1848)"/></g><path class="b" d="M689.893,571.8c13.549,0,24.531.9,24.531,2s-10.982,2-24.531,2-24.532-.9-24.532-2,10.983-2,24.532-2" transform="translate(-341.424 1298.054)"/></g></svg>